# xmcd
#
# Track frame offsets:
#	150
#	14732
#	27824
#	43801
#	61247
#	80901
#	95087
#	109267
#	123419
#	136644
#	154550
#	166647
#	188078
#	205715
#	217888
#	233381
#
# Disc length: 3356 seconds
#
# Revision: 1
# Processed by: cddbd v1.5.2PL0 Copyright (c) Steve Scherf et al.
# Submitted via: audiograbber 1.83.01
#
DISCID=ca0d1a10
DTITLE=Nurkurt - Beeindruckt
DYEAR=2012
DGENRE=Ballad
TTITLE0=Früher
TTITLE1=Moon Shadow
TTITLE2=If You Could Read My Mind
TTITLE3=City Of New Orleans
TTITLE4=Corrywreckan Calling
TTITLE5=Heute Hier, Morgen Dort
TTITLE6=Molly Malone
TTITLE7=Love The One You're With
TTITLE8=The Dance
TTITLE9=The Boxer
TTITLE10=First Time
TTITLE11=Where Do You Go To My Lovely
TTITLE12=Whisky In The Jar
TTITLE13=San Francisco Bay Blues
TTITLE14=Geh Bloß Blues
TTITLE15=Hymn
EXTD=
EXTT0=
EXTT1=
EXTT2=
EXTT3=
EXTT4=
EXTT5=
EXTT6=
EXTT7=
EXTT8=
EXTT9=
EXTT10=
EXTT11=
EXTT12=
EXTT13=
EXTT14=
EXTT15=
PLAYORDER=
